<svg width="41" height="40" viewBox="0 0 41 40" fill="none" xmlns="http://www.w3.org/2000/svg">
<path d="M34.0192 15.2101V13.6723C34.0192 9.9916 32.7167 6.57143 30.3554 4.03361C27.9352 1.42857 24.6075 0 20.9772 0H19.7083C16.0781 0 12.7503 1.42857 10.3302 4.03361C7.96882 6.57143 6.6663 9.9916 6.6663 13.6723V15.2101C3.80075 15.4034 1.52344 17.7899 1.52344 20.7059V23.1092C1.52344 26.1429 3.99403 28.6134 7.02764 28.6134H10.1285C10.6831 28.6134 11.1369 28.1597 11.1369 27.605V16.2017C11.1369 15.6471 10.6831 15.1933 10.1285 15.1933H8.6831V13.6723C8.6831 7.02521 13.4226 2.01681 19.6999 2.01681H20.9688C27.2545 2.01681 31.9856 7.02521 31.9856 13.6723V15.1933H30.5402C29.9856 15.1933 29.5318 15.6471 29.5318 16.2017V27.5966C29.5318 28.1513 29.9856 28.605 30.5402 28.605H31.952C31.5402 33.8655 27.9184 35.084 26.2377 35.3613C25.7755 33.9412 24.4394 32.916 22.868 32.916H20.347C18.3974 32.916 16.8092 34.5042 16.8092 36.4538C16.8092 38.4034 18.3974 40 20.347 40H22.8764C24.5066 40 25.8764 38.8908 26.2881 37.395C27.1117 37.2773 28.4142 36.9832 29.7083 36.2269C31.5318 35.1597 33.6915 32.9832 33.9772 28.5966C36.8596 28.4202 39.1453 26.0252 39.1453 23.1008V20.6975C39.1537 17.7899 36.8848 15.395 34.0192 15.2101ZM9.13688 26.5882H7.04445C5.12008 26.5882 3.55705 25.0252 3.55705 23.1008V20.6975C3.55705 18.7731 5.12008 17.2101 7.04445 17.2101H9.13688V26.5882ZM22.8764 37.9832H20.347C19.5066 37.9832 18.826 37.3025 18.826 36.4622C18.826 35.6218 19.5066 34.9412 20.347 34.9412H22.8764C23.7167 34.9412 24.3974 35.6218 24.3974 36.4622C24.3974 37.3025 23.7167 37.9832 22.8764 37.9832ZM37.1369 23.1008C37.1369 25.0252 35.5739 26.5882 33.6495 26.5882H31.5571V17.2101H33.6495C35.5739 17.2101 37.1369 18.7731 37.1369 20.6975V23.1008Z" fill="#00B307"/>
</svg>
