<svg width="40" height="40" viewBox="0 0 40 40" fill="none" xmlns="http://www.w3.org/2000/svg">
<path d="M38.3947 9.43014C38.3947 9.27818 38.3609 9.12621 38.2934 8.98269C38.1583 8.69565 37.8966 8.50148 37.6096 8.44238L20.4124 0.101309C20.1338 -0.0337695 19.8046 -0.0337695 19.526 0.101309L2.16002 8.51836C1.82232 8.67877 1.60282 9.01646 1.58594 9.39637V9.40481C1.58594 9.41325 1.58594 9.4217 1.58594 9.43858V30.5614C1.58594 30.9498 1.80544 31.3043 2.16002 31.4732L19.526 39.8903C19.5344 39.8903 19.5344 39.8903 19.5429 39.8987C19.5682 39.9071 19.5935 39.9156 19.6189 39.9325C19.6273 39.9325 19.6357 39.9409 19.6526 39.9409C19.678 39.9493 19.7033 39.9578 19.7286 39.9662C19.7371 39.9662 19.7455 39.9747 19.7539 39.9747C19.7793 39.9831 19.813 39.9831 19.8384 39.9916C19.8468 39.9916 19.8552 39.9916 19.8637 39.9916C19.8975 39.9916 19.9397 40 19.9734 40C20.0072 40 20.0494 40 20.0832 39.9916C20.0916 39.9916 20.1001 39.9916 20.1085 39.9916C20.1338 39.9916 20.1676 39.9831 20.1929 39.9747C20.2014 39.9747 20.2098 39.9662 20.2183 39.9662C20.2436 39.9578 20.2689 39.9493 20.2943 39.9409C20.3027 39.9409 20.3111 39.9325 20.328 39.9325C20.3533 39.924 20.3787 39.9156 20.404 39.8987C20.4124 39.8987 20.4124 39.8987 20.4209 39.8903L37.8375 31.4479C38.1837 31.279 38.4116 30.9244 38.4116 30.5361V9.45547C38.3947 9.44702 38.3947 9.43858 38.3947 9.43014ZM19.965 2.13592L35.0262 9.43858L29.4796 12.1317L14.4184 4.82904L19.965 2.13592ZM19.965 16.7412L4.90379 9.43858L12.0967 5.95188L27.1579 13.2545L19.965 16.7412ZM3.61211 11.068L18.9519 18.5057V37.3575L3.61211 29.9198V11.068ZM20.9781 37.3575V18.5057L28.1794 15.0106V19.9409C28.1794 20.4981 28.6353 20.954 29.1925 20.954C29.7497 20.954 30.2056 20.4981 30.2056 19.9409V14.0228L36.3685 11.0342V29.886L20.9781 37.3575Z" fill="#00B307"/>
</svg>
